<?xml version="1.0" encoding="UTF-8"?>
<svg id="Layer_1" xmlns="http://www.w3.org/2000/svg" version="1.1" viewBox="0 0 68 68">
  <!-- Generator: Adobe Illustrator 30.0.0, SVG Export Plug-In . SVG Version: 2.1.1 Build 123)  -->
  <path d="M10.5,18c0,1.7-1.3,3-3,3s-3-1.3-3-3,1.3-3,3-3,3,1.3,3,3h0" fill="#ffa846" fill-rule="evenodd"/>
  <path d="M25.5,6c0,1.7-1.3,3-3,3s-3-1.3-3-3,1.3-3,3-3,3,1.3,3,3h0" fill="#ffa846" fill-rule="evenodd"/>
  <path d="M44.5,4c0,1.7-1.3,3-3,3s-3-1.3-3-3,1.3-3,3-3,3,1.3,3,3h0" fill="#ffa846" fill-rule="evenodd"/>
  <path d="M60.5,16c0,1.7-1.3,3-3,3s-3-1.3-3-3,1.3-3,3-3h0c1.7,0,3,1.3,3,3" fill="#ffa846" fill-rule="evenodd"/>
  <path d="M67.5,32c0,1.7-1.3,3-3,3s-3-1.3-3-3,1.3-3,3-3h0c1.7,0,3,1.3,3,3" fill="#ffa846" fill-rule="evenodd"/>
  <path d="M63.5,50c0,1.7-1.3,3-3,3s-3-1.3-3-3,1.3-3,3-3,3,1.3,3,3" fill="#ffa846" fill-rule="evenodd"/>
  <path d="M48.5,63c0,1.7-1.3,3-3,3s-3-1.3-3-3,1.3-3,3-3h0c1.7,0,3,1.3,3,3" fill="#ffa846" fill-rule="evenodd"/>
  <path d="M29.5,64c0,1.7-1.3,3-3,3s-3-1.3-3-3,1.3-3,3-3h0c1.7,0,3,1.3,3,3" fill="#ffa846" fill-rule="evenodd"/>
  <path d="M13.5,52c0,1.7-1.3,3-3,3s-3-1.3-3-3,1.3-3,3-3h0c1.7,0,3,1.3,3,3" fill="#ffa846" fill-rule="evenodd"/>
  <path d="M6.5,36c0,1.7-1.3,3-3,3s-3-1.3-3-3,1.3-3,3-3h0c1.7,0,3,1.3,3,3" fill="#ffa846" fill-rule="evenodd"/>
  <path d="M23.5,15c0,1.7-1.3,3-3,3s-3-1.3-3-3,1.3-3,3-3h0c1.7,0,3,1.3,3,3" fill="#ffa846" fill-rule="evenodd"/>
  <path d="M15.5,27c0,1.7-1.3,3-3,3s-3-1.3-3-3,1.3-3,3-3,3,1.3,3,3h0" fill="#ffa846" fill-rule="evenodd"/>
  <path d="M23.5,52c0,1.7-1.3,3-3,3s-3-1.3-3-3,1.3-3,3-3,3,1.3,3,3h0" fill="#ffa846" fill-rule="evenodd"/>
  <path d="M37.5,58c0,1.7-1.3,3-3,3s-3-1.3-3-3,1.3-3,3-3h0c1.7,0,3,1.3,3,3" fill="#ffa846" fill-rule="evenodd"/>
  <path d="M50.5,53c0,1.7-1.3,3-3,3s-3-1.3-3-3,1.3-3,3-3h0c1.7,0,3,1.3,3,3" fill="#ffa846" fill-rule="evenodd"/>
  <path d="M58.5,41c0,1.7-1.3,3-3,3s-3-1.3-3-3,1.3-3,3-3h0c1.7,0,3,1.3,3,3" fill="#ffa846" fill-rule="evenodd"/>
  <path d="M58.5,27c0,1.7-1.3,3-3,3s-3-1.3-3-3,1.3-3,3-3,3,1.3,3,3h0" fill="#ffa846" fill-rule="evenodd"/>
  <path d="M50.5,16c0,1.7-1.3,3-3,3s-3-1.3-3-3,1.3-3,3-3h0c1.7,0,3,1.3,3,3h0" fill="#ffa846" fill-rule="evenodd"/>
  <path d="M37.5,11c0,1.7-1.3,3-3,3s-3-1.3-3-3,1.3-3,3-3,3,1.3,3,3h0" fill="#ffa846" fill-rule="evenodd"/>
  <path d="M15.5,41c0,1.7-1.3,3-3,3s-3-1.3-3-3,1.3-3,3-3h0c1.7,0,3,1.3,3,3" fill="#ffa846" fill-rule="evenodd"/>
  <path d="M22.5,22c0,1.1-.9,2-2,2s-2-.9-2-2,.9-2,2-2h0c1.1,0,2,.9,2,2" fill="#ffa846" fill-rule="evenodd"/>
  <path d="M18.5,32c0,1.1-.9,2-2,2s-2-.9-2-2,.9-2,2-2,2,.9,2,2h0" fill="#ffa846" fill-rule="evenodd"/>
  <path d="M20.5,43c0,1.1-.9,2-2,2s-2-.9-2-2,.9-2,2-2h0c1.1,0,2,.9,2,2" fill="#ffa846" fill-rule="evenodd"/>
  <path d="M29.5,50c0,1.1-.9,2-2,2s-2-.9-2-2,.9-2,2-2h0c1.1,0,2,.9,2,2h0" fill="#ffa846" fill-rule="evenodd"/>
  <path d="M40.5,51c0,1.1-.9,2-2,2s-2-.9-2-2,.9-2,2-2,2,.9,2,2h0" fill="#ffa846" fill-rule="evenodd"/>
  <path d="M49.5,47c0,1.1-.9,2-2,2s-2-.9-2-2,.9-2,2-2,2,.9,2,2h0" fill="#ffa846" fill-rule="evenodd"/>
  <path d="M53.5,36c0,1.1-.9,2-2,2s-2-.9-2-2,.9-2,2-2,2,.9,2,2h0" fill="#ffa846" fill-rule="evenodd"/>
  <path d="M51.5,25c0,1.1-.9,2-2,2s-2-.9-2-2,.9-2,2-2,2,.9,2,2" fill="#ffa846" fill-rule="evenodd"/>
  <path d="M43.5,18c0,1.1-.9,2-2,2s-2-.9-2-2,.9-2,2-2,2,.9,2,2" fill="#ffa846" fill-rule="evenodd"/>
  <path d="M31.5,17c0,1.1-.9,2-2,2s-2-.9-2-2,.9-2,2-2,2,.9,2,2h0" fill="#ffa846" fill-rule="evenodd"/>
  <path d="M29.5,21.5c0,.8-.7,1.5-1.5,1.5s-1.5-.7-1.5-1.5.7-1.5,1.5-1.5,1.5.7,1.5,1.5" fill="#ffa846" fill-rule="evenodd"/>
  <path d="M38.5,21.5c0,.8-.7,1.5-1.5,1.5s-1.5-.7-1.5-1.5.7-1.5,1.5-1.5,1.5.7,1.5,1.5h0" fill="#ffa846" fill-rule="evenodd"/>
  <path d="M45.5,24.5c0,.8-.7,1.5-1.5,1.5s-1.5-.7-1.5-1.5.7-1.5,1.5-1.5,1.5.7,1.5,1.5" fill="#ffa846" fill-rule="evenodd"/>
  <path d="M48.5,32.5c0,.8-.7,1.5-1.5,1.5s-1.5-.7-1.5-1.5.7-1.5,1.5-1.5h0c.8,0,1.5.7,1.5,1.5" fill="#ffa846" fill-rule="evenodd"/>
  <path d="M47.5,40.5c0,.8-.7,1.5-1.5,1.5s-1.5-.7-1.5-1.5.7-1.5,1.5-1.5h0c.8,0,1.5.7,1.5,1.5h0" fill="#ffa846" fill-rule="evenodd"/>
  <path d="M40.5,46.5c0,.8-.7,1.5-1.5,1.5s-1.5-.7-1.5-1.5.7-1.5,1.5-1.5,1.5.7,1.5,1.5" fill="#ffa846" fill-rule="evenodd"/>
  <path d="M32.5,46.5c0,.8-.7,1.5-1.5,1.5s-1.5-.7-1.5-1.5.7-1.5,1.5-1.5,1.5.7,1.5,1.5h0" fill="#ffa846" fill-rule="evenodd"/>
  <path d="M25.5,43.5c0,.8-.7,1.5-1.5,1.5s-1.5-.7-1.5-1.5.7-1.5,1.5-1.5h0c.8,0,1.5.7,1.5,1.5h0" fill="#ffa846" fill-rule="evenodd"/>
  <path d="M22.5,36.5c0,.8-.7,1.5-1.5,1.5s-1.5-.7-1.5-1.5.7-1.5,1.5-1.5,1.5.7,1.5,1.5" fill="#ffa846" fill-rule="evenodd"/>
  <path d="M23.5,28.5c0,.8-.7,1.5-1.5,1.5s-1.5-.7-1.5-1.5.7-1.5,1.5-1.5,1.5.7,1.5,1.5h0" fill="#ffa846" fill-rule="evenodd"/>
  <path d="M29.5,28c0,.6-.4,1-1,1s-1-.4-1-1,.4-1,1-1,1,.4,1,1" fill="#ffa846" fill-rule="evenodd"/>
  <path d="M25.5,32c0,.6-.4,1-1,1s-1-.4-1-1,.4-1,1-1,1,.4,1,1h0" fill="#ffa846" fill-rule="evenodd"/>
  <path d="M27.5,38c0,.6-.4,1-1,1s-1-.4-1-1,.4-1,1-1h0c.6,0,1,.4,1,1" fill="#ffa846" fill-rule="evenodd"/>
  <path d="M30.5,43c0,.6-.4,1-1,1s-1-.4-1-1,.4-1,1-1,1,.4,1,1h0" fill="#ffa846" fill-rule="evenodd"/>
  <path d="M36.5,43c0,.6-.4,1-1,1s-1-.4-1-1,.4-1,1-1,1,.4,1,1h0" fill="#ffa846" fill-rule="evenodd"/>
  <path d="M40.5,40c0,.6-.4,1-1,1s-1-.4-1-1,.4-1,1-1,1,.4,1,1h0" fill="#ffa846" fill-rule="evenodd"/>
  <path d="M44.5,36c0,.6-.4,1-1,1s-1-.4-1-1,.4-1,1-1h0c.6,0,1,.4,1,1" fill="#ffa846" fill-rule="evenodd"/>
  <path d="M44.5,30c0,.6-.4,1-1,1s-1-.4-1-1,.4-1,1-1,1,.4,1,1" fill="#ffa846" fill-rule="evenodd"/>
  <path d="M39.5,25c0,.6-.4,1-1,1s-1-.4-1-1,.4-1,1-1,1,.4,1,1h0" fill="#ffa846" fill-rule="evenodd"/>
  <path d="M33.5,25c0,.6-.4,1-1,1s-1-.4-1-1,.4-1,1-1h0c.6,0,1,.4,1,1" fill="#ffa846" fill-rule="evenodd"/>
</svg>